<svg xmlns="http://www.w3.org/2000/svg" viewBox="0 0 682.7 682.7" fill="none">
<style type="text/css">
	.st0{fill:#FFFFFF;}
</style>
<g>
			<path class="st0" d="M236.8,445.1c-0.2,6.7-0.7,13.2-0.6,19.7c0.1,6.4,0.9,12.7,1.3,19.1c1.3-2.7,2-5.5,2.2-8.4
				c0.2-4,0.1-8,0.1-12c-0.1-10.6,2.9-19.6,9.1-26.7c3.2-3.6,6.6-6.9,10.1-10.1c4.5-4.2,9-8.2,13.5-12.4
				c11.8-10.8,22.4-23.1,31.1-37.9c0.4-0.7,1-1.4,1.7-2.4c0.3,1.1,0.6,1.6,0.6,2.1c0.7,19.2,1.2,38.4,2,57.6
				c0.6,14.4-4.2,25.5-12.8,34.5c-2.6,2.7-5.3,5.2-7.8,7.9c-6.6,6.9-10.9,15.6-12.9,26c-0.3,1.4-0.2,2.8-0.3,4.2
				c1.5-2,2.2-4.2,2.9-6.3c2.1-6.2,4.9-11.8,9.1-16c6.9-6.9,14-13.5,21.7-20.9c-0.3,4.6-0.4,8.4-0.7,12.3
				c-0.7,11.8-1.5,23.6-0.3,35.3c1.7,16.1,7.7,29.9,15.3,42.8c0.1,0.2,0.5,0,1.4,0c-4.6-13.3-10-26.1-10.7-40.8
				c-0.5-10.1,1.8-37.1,3.7-41.6c4.1,5.1,8.2,10.4,12.4,15.5c5.5,6.6,9.3,14.2,10.3,23.8c0.1,1,0.5,2,0.8,3.1
				c1.1-10.5-1.1-19.8-6.4-27.8c-2.1-3.1-4.4-5.9-6.4-8.9c-5.7-8.3-9-17.8-8.9-29c0.2-14.2,0.3-28.4,0.5-42.6c0.2-13,0.5-26,0.8-39
				c0-1.2,0.4-2.4,0.8-4.6c7,13.5,15.3,24,24,34c3.5,4.1,7.3,7.8,10.6,12.2c3.6,4.8,7,9.8,10,15.2c3.3,5.9,4.5,12.7,4.1,20
				c-0.3,4.6-0.4,9.2-0.3,13.8c0.1,6.2,1.8,11.8,4.9,16.5c0.4,0.6,1.1,1,1.8,1.7c0.1-0.9,0.3-1.3,0.1-1.6
				c-3.9-8.1-3.7-16.7-2.6-25.6c0.6-4.5,0.5-9.2,0.5-13.8c0-2.6-0.5-5.3-1-9.4c5.4,5.8,10.2,10.5,14.6,15.6
				c11.4,13.1,17.5,29.4,18,48.7c0.3,10.2-0.1,20.4-0.1,30.6c0,1.6,0,3.2,0,4.8c0.3,0,0.7,0,1-0.1c3.6-20.1,5-40.4,0.7-61.9
				c4.6,3.5,8.4,6.5,12.2,9.4c3.7,2.8,7.3,5.7,11.7,6.5c-0.3-1-0.8-1.5-1.3-1.9c-6.3-5.5-12.7-10.8-18.7-16.6
				c-3.4-3.3-6.5-7.2-9.1-11.4c-4.8-8-10.1-15.4-16-22.2c-12.3-14.2-24.7-28.3-36.9-42.8c-8.5-10.1-15.5-21.8-20.3-35.3
				c-4-11.3-5.4-23-2.8-35.1c3.3-15.4,6.8-30.8,10.3-46.2c0.1-0.6,0.5-1.1,1.1-2.3c3.5,15.9,10,28.9,18.6,40.1
				c7.9,10.3,10.5,21.9,7.9,35.8c-0.9,5-1.3,10.3-1.2,15.5c0,5.3,1.5,10.2,4.8,13.9c0-2.3-0.5-4.4-0.6-6.5
				c-0.1-4.4-0.5-8.9,0.2-13.1c1.7-9.7,4.8-19,3.9-30.3c3.2,2.4,5.5,4.3,8,6.1c7.6,5.5,11.2,13.8,11.6,24.7c0.1,4,0.4,8,0.8,12
				c0.5,4.9,2.1,9.3,4.9,12.8c2.2,2.8,4.9,5.3,6.9,8.3c2,2.9,3.4,6.4,5.7,10.8c-0.3-2.6-0.3-3.9-0.6-5.2c-1.2-5.4-3.9-9.6-6.9-13.5
				c-3.7-4.8-5.8-10.4-6-17.1c-0.3-7.7-0.6-15.5-0.9-23c10.4,4.1,21.1,8.3,31.8,12.6c0.5,5.3,0.8,10.7,1.6,16
				c2.4,15.3,8.4,27.5,19.6,35.1c0.8,0.6,1.8,0.6,2.8,0.9c0.3-0.3,0.6-0.6,0.9-1c-14.1-11.8-18.1-28.8-16.7-49.3
				c4.6,1.4,8.9,2.6,13.2,4c13.1,4.3,23.1,14.1,30.3,28.3c5.1,10.1,8.3,21.2,10,32.9c1.5,10,2.4,20.2,3.9,30.2
				c1.7,11.6,5.3,22.2,12.7,30.2c1.2,1.3,2.6,2.4,4,3.6c0.3-0.3,0.7-0.6,1-1c-11.3-12.4-13.6-28.6-13.2-46.3c6,7.3,13.8,10,21,13.9
				c4.8,2.6,8.8,6.3,12,11.6c0.7,1.1,1.5,2,2.3,3c0.3-1.5,0.1-2.4-0.2-3.2c-2.6-6-6.4-10.5-11-13.8c-3.7-2.7-7.6-5.1-11.4-7.7
				c-6.2-4.2-10.3-10.6-12.3-19.1c-1-4.4-1.9-8.9-2.8-13.3c-3.6-17.8-9.6-33.9-20.7-46.4c-0.3-0.3-0.3-1-0.5-1.8c1.2,0,2.1,0,3.1,0
				c13.7-0.1,27.4-0.2,41.1-0.3c4.9,0,9.9-0.2,14.8-0.1c15.8,0.4,27.6,9.8,36,26.3c2.5,4.9,4.9,9.8,7.5,14.7
				c3,5.5,6.8,10.1,11.3,13.7c0.6,0.5,1.5,0.5,2.7,1c-3.2-4.4-6.3-7.9-8.7-12.1c-2.6-4.5-4.8-9.5-6.9-14.4
				c-4.3-10.1-9.3-19.6-16.5-26.9c-0.3-0.3-0.3-1-0.6-2.4c14,2.1,27.5,4.1,41.1,6.1c-0.3-0.4-0.5-1.1-0.9-1.3
				c-1.5-0.7-3-1.5-4.5-1.9c-12.2-2.8-24.4-5.9-36.7-8.3c-16.7-3.3-33.7-3.7-50.6-4c-17.7-0.4-35.4-0.9-52.9-4.5
				c-5.9-1.2-11.8-2.6-17.4-5c-0.3-2-0.5-3.3-0.6-4.7c-1.3-15-6.6-27.5-15.3-37.7c-4.1-4.8-8.4-9.2-12.8-13.5
				c-6.4-6.3-13-12.3-19.3-18.7c-11.4-11.6-19.4-26.4-24.8-43.4c-0.4-1.4-0.7-2.8-1-4.3c10.9,10.5,23.5,15.5,36.1,20.5
				c19.8,7.8,33.2,24.5,40,49.3c1.1,4.2,2.2,8.4,3.7,12.3c2.8,7.6,7.2,13.1,13.6,15.9c2.3,1,4.7,2.2,7.5,0.5
				c-6.9-1.8-11.9-6.5-15.3-13.9c-3.3-7.1-4.7-14.8-5.9-23.8c7.1,5.7,13.9,8.9,21.4,9.2c2.7,0.1,5.4,0.5,8.1,0.6
				c6.6,0.3,12.9,2.2,18.8,6.1c0.6,0.4,1.3,0.5,2,0.8c0.2-0.3,0.3-0.7,0.5-1c-1.2-1.1-2.4-2.4-3.7-3.3c-5.1-3.8-10.7-6.1-16.6-7.1
				c-3.2-0.5-6.3-0.9-9.5-1.6c-9.9-2.2-17.6-8.9-24.2-18.1c-5-7-10.1-13.9-15.2-20.8c-0.7-0.9-1.3-1.9-2-2.9
				c10-0.8,19.7-1.4,29.4-2.2c5.2-0.4,10.5-1.3,15.7-1.6c26.1-1.1,48.5,9.6,66.3,34.1c2.6,3.5,5.2,7,7.9,10.5
				c7.3,9.6,16.4,15.1,26.7,17.2c1.9,0.4,3.8,0.6,5.7,0.9c0.1-0.4,0.1-0.8,0.2-1.2c-0.8-0.4-1.6-0.9-2.5-1.1
				c-11.8-3-21-10.8-28.7-22.2c-5.8-8.5-11.9-16.6-17.9-24.9c-0.2-0.2-0.1-0.7-0.1-1.1c7.2-1.3,14.4-2.2,21.6-4
				c15.9-4,31.1-2.1,45.8,6.5c1.2,0.7,2.6,1.2,3.8,1.7c-0.8-1.8-1.9-2.9-3-3.7c-15.1-10.9-31.3-14.3-48.4-10.5
				c-14.9,3.3-29.3,2.8-43.4-5.9c-9.3-5.8-19.7-7.9-30.2-7.9c-8.6,0-17.2,0.2-25.8,0.7c-15.5,0.9-31,0.2-46-5.6
				c-21.4-8.3-37.4-23.7-43.2-52.5c-9.3,0-18.6,0-27.8,0c-3.5,16.5-11.4,28.3-22.4,37.3c-10.9,8.9-23.1,13.4-35.7,16.5
				c-23.1,5.8-46.5,7.3-70,4.4c-18-2.2-35.3,0.8-52,9.2c-3.1,1.6-6.4,2.5-9.6,3.4c-6.5,1.9-13,0.3-19.5-0.9
				c-13.3-2.4-26.1-1-37.9,7.9c-0.8,0.6-1.6,1.5-2.3,2.3c8.4-3.7,16.7-7,25.6-6.5c8.7,0.5,17.1,3.1,25.9,5.3
				c-3.9,4.5-7.6,8.4-10.8,12.7c-3.8,5.1-7.3,10.6-11,15.9c-4.9,7.1-10.5,12.9-17.5,16.3c-0.6,0.3-1.1,1-1.6,1.5
				c1.2,0.5,2.1,0.4,3,0.1c5.9-2.2,11.2-5.8,15.7-11.2c3.8-4.6,7.5-9.3,11-14.2c6.2-8.6,13.5-15.2,21.9-20
				c19.3-11,39.3-14.7,60.2-9.9c1.1,0.3,2.2,0.7,3.4,1.1c-0.4,0.7-0.5,0.9-0.6,1c-0.7,0.5-1.3,1.1-2,1.6
				c-10.9,7.6-19.3,18.4-25.6,31.7c-3.3,7-6,14.5-9.2,21.7c-3,6.8-6.2,13.4-9.4,20.2c-0.5,1.1-1.1,2.1-1.6,3.1
				c2.2-1,3.9-2.6,5.1-4.5c3-4.7,6-9.4,8.6-14.4c3.3-6.2,6.1-12.7,9.3-18.9c10.3-20.3,25-33.1,43.8-37.2c10.3-2.3,20.9-2.5,31.4-3.6
				c1.2-0.1,2.4,0,3.7,0c-4.9,8.4-9.4,16.2-14,24.1c-5.2,8.9-12.2,14.6-20.5,17.7c-3,1.2-6.1,2.3-9.1,3.8c-4.1,1.9-7.7,4.8-10.6,9
				c-0.5,0.7-0.7,1.7-1.1,2.5c6.3-6.2,13.5-8.6,21-10.1c10.9-2.3,19.7-8.9,26.6-19.6c2.5-3.9,5-7.7,7.6-11.6
				c5.9-8.8,13.4-14.7,22-18.3c3-1.3,6.1-2.4,9.2-3.4c12.9-4.4,24.8-11.3,35.2-22.1c0.5-0.5,1-0.8,2.2-1.7c-0.6,3-1,5.3-1.5,7.6
				c-4.7,21-14.6,38.1-26.6,53.3c-20.4,25.8-44.7,44.2-71.5,57.6c-9,4.5-18.2,8.6-27.3,12.9c-14.6,6.7-29.5,11.2-44.9,13.9
				c-9.8,1.7-19.5,4.1-29.1,7c-8.3,2.5-16.5,4.1-25.1,3.8c-3.2-0.1-6.4-0.2-9.6-0.1c-0.9,0-1.8,0.8-2.7,1.2
				c8.4,1.6,16.6,2.5,24.9,3.5c0.1,0,0.2,0.2,0.3,0.4c0.1,0.2,0.1,0.4-0.1-0.4c-4.7,7.4-9.4,14.2-13.6,21.5
				c-4.1,7.2-8,14.4-13.3,20.4c-0.2,0.3-0.2,0.8-0.4,1.2c2.7-1.4,5-3.2,6.8-5.6c4-5.4,7.9-11,11.5-16.9c7.8-12.8,18-21.1,30.6-23.7
				c10.5-2.2,21.1-2.9,32.5-4.4c-0.9,1.7-1.2,2.6-1.7,3.3c-5.6,7.9-9.6,16.9-12.6,26.7c-1.3,4.1-2.9,8-4.4,12
				c-3,7.9-7.7,14.2-12.3,20.6c-3.4,4.8-6.4,10.1-7.5,16.5c-0.4,2.4-0.4,4.9-0.5,7.4c0.4,0.1,0.7,0.3,1.1,0.4
				c1.2-11,6.9-18.3,12.8-25.4c2.4-2.9,4.7-6,7-9c0.7-0.9,1.5-1.7,2.7-3.2c0.3,5.3,0.7,9.6,0.7,13.9c0,4.2,0,8.5-0.8,12.5
				c-0.8,4-2.5,7.7-3.8,11.6c5-4.4,7.3-10.6,7.9-17.7c0.6-6.1,0.7-12.4,0.8-18.6c0.1-6.7,1.3-13.1,3.5-19.2
				c6.6-18.5,17.1-31.5,32.7-37.7c14-5.6,27.8-11.6,41.7-17.4c0.6-0.2,1.2-0.2,1.9-0.4c-1.9,7.9-3.6,15.6-5.5,23.1
				c-2.3,8.9-7.2,13.9-14.6,15c-2.8,0.5-5.7,0.8-8.5,1.3c-4.7,0.9-8.9,3.1-12.4,7.3c-0.5,0.6-0.8,1.7-1.1,2.5
				c5.3-4,10.8-5.9,16.6-5.9c5.9,0,11.8,0,17.5-4.5c-1.4,13.1-5.3,23.6-11.9,32.7c1.7-0.7,3-1.7,4.1-2.9c4.9-5.1,8.4-11.5,10.6-18.9
				c3.3-10.8,6.4-21.8,9.5-32.7c2.4-8.6,6.1-16.3,11.5-22.5c2.4-2.7,5.2-4.9,7.8-7.3c-0.8,10.7-1.5,20.6-2.3,30.6
				c0.3,0.1,0.7,0.2,1,0.3c2-3.8,2.6-8.3,3.1-12.7c1.3-12.5,6.7-21.8,14.3-29.5c2-2,4.1-3.7,6.3-5.5c13-10.7,24.9-23,35.2-37.7
				c0.6-0.9,1.5-1.6,3-3.2c-0.5,3-0.8,4.7-1.1,6.4c-1.7,8.3-3.7,16.6-5.1,25c-2,11.7-3.3,23.6-5.3,35.3c-3.9,22.3-13,41.1-25.6,57.3
				c-9.5,12.2-20.3,22.5-31.1,32.8c-9.8,9.3-19.6,18.5-29,28.4c-16.5,17.3-21.4,40.3-19.5,66.3c0.1,0.9,0.6,1.8,0.9,2.7
				c1.5-14.9,2.7-29.6,8.6-43C217.4,461.9,226.9,453,236.8,445.1z"/>
			<path class="st0" d="M236.8,445.1c-9.9,7.9-19.4,16.8-25.4,30.4c-5.8,13.3-7.1,28-8.6,43c-0.3-0.9-0.8-1.8-0.9-2.7
				c-2-26,2.9-49,19.5-66.3c9.4-9.9,19.3-19.1,29-28.4c10.8-10.3,21.6-20.6,31.1-32.8c12.6-16.2,21.7-35,25.6-57.3
				c2.1-11.7,3.4-23.6,5.3-35.3c1.4-8.4,3.4-16.7,5.1-25c0.3-1.7,0.6-3.4,1.1-6.4c-1.5,1.6-2.4,2.3-3,3.2
				c-10.3,14.7-22.2,27-35.2,37.7c-2.1,1.8-4.3,3.5-6.3,5.5c-7.6,7.6-13,17-14.3,29.5c-0.5,4.4-1.1,8.9-3.1,12.7
				c-0.3-0.1-0.7-0.2-1-0.3c0.7-10,1.5-19.9,2.3-30.6c-2.7,2.4-5.5,4.6-7.8,7.3c-5.4,6.2-9.1,13.8-11.5,22.5
				c-3.1,10.9-6.2,21.9-9.5,32.7c-2.2,7.4-5.8,13.8-10.6,18.9c-1.2,1.2-2.5,2.2-4.1,2.9c6.6-9.1,10.5-19.7,11.9-32.7
				c-5.8,4.6-11.7,4.5-17.5,4.5c-5.9,0-11.3,1.9-16.6,5.9c0.4-0.8,0.6-1.9,1.1-2.5c3.4-4.2,7.7-6.4,12.4-7.3
				c2.8-0.5,5.7-0.9,8.5-1.3c7.4-1.2,12.4-6.1,14.6-15c1.9-7.5,3.6-15.2,5.5-23.1c-0.7,0.1-1.3,0.1-1.9,0.4
				c-13.9,5.8-27.8,11.8-41.7,17.4c-15.6,6.3-26.1,19.3-32.7,37.7c-2.2,6.1-3.4,12.4-3.5,19.2c-0.1,6.2-0.3,12.4-0.8,18.6
				c-0.7,7.1-2.9,13.3-7.9,17.7c1.3-3.8,3-7.6,3.8-11.6c0.8-4,0.8-8.3,0.8-12.5c0-4.3-0.4-8.7-0.7-13.9c-1.3,1.5-2,2.3-2.7,3.2
				c-2.3,3-4.6,6.1-7,9c-5.9,7.1-11.6,14.3-12.8,25.4c-0.4-0.1-0.7-0.3-1.1-0.4c0.2-2.5,0.1-5,0.5-7.4c1.1-6.5,4-11.7,7.5-16.5
				c4.6-6.4,9.3-12.7,12.3-20.6c1.5-4,3.2-7.9,4.4-12c3-9.8,7.1-18.8,12.6-26.7c0.5-0.7,0.8-1.6,1.7-3.3c-11.4,1.5-22,2.2-32.5,4.4
				c-12.6,2.6-22.8,10.9-30.6,23.7c-3.6,5.9-7.5,11.4-11.5,16.9c-1.8,2.4-4.1,4.2-6.8,5.6c0.1-0.4,0.1-1,0.4-1.2
				c5.3-5.9,9.2-13.2,13.3-20.4c4.1-7.3,8.8-14.1,13.6-21.5c0.2,0.7,0.2,0.5,0.1,0.4c-0.1-0.1-0.2-0.3-0.3-0.4
				c-8.2-1-16.5-1.9-24.9-3.5c0.9-0.4,1.8-1.1,2.7-1.2c3.2-0.1,6.4-0.1,9.6,0.1c8.5,0.4,16.8-1.2,25.1-3.8c9.6-2.9,19.3-5.3,29.1-7
				c15.4-2.7,30.4-7.1,44.9-13.9c9.1-4.2,18.3-8.4,27.3-12.9c26.8-13.4,51.1-31.8,71.5-57.6c12-15.2,21.9-32.3,26.6-53.3
				c0.5-2.3,0.9-4.6,1.5-7.6c-1.1,0.9-1.7,1.2-2.2,1.7c-10.4,10.8-22.3,17.8-35.2,22.1c-3.1,1-6.1,2.2-9.2,3.4
				c-8.7,3.6-16.1,9.5-22,18.3c-2.6,3.8-5.1,7.7-7.6,11.6c-6.9,10.7-15.8,17.3-26.6,19.6c-7.5,1.6-14.7,3.9-21,10.1
				c0.3-0.8,0.6-1.8,1.1-2.5c2.9-4.1,6.5-7.1,10.6-9c3-1.4,6-2.6,9.1-3.8c8.3-3.2,15.3-8.8,20.5-17.7c4.6-7.9,9.1-15.7,14-24.1
				c-1.3,0-2.5-0.1-3.7,0c-10.5,1.1-21.1,1.3-31.4,3.6c-18.8,4.1-33.5,16.9-43.8,37.2c-3.2,6.2-6,12.7-9.3,18.9
				c-2.6,5-5.6,9.7-8.6,14.4c-1.3,2-2.9,3.5-5.1,4.5c0.5-1,1.1-2.1,1.6-3.1c3.1-6.7,6.4-13.4,9.4-20.2c3.2-7.2,5.9-14.7,9.2-21.7
				c6.3-13.3,14.8-24.1,25.6-31.7c0.7-0.5,1.4-1,2-1.6c0.1-0.1,0.2-0.3,0.6-1c-1.2-0.4-2.3-0.8-3.4-1.1c-20.9-4.8-40.9-1.1-60.2,9.9
				c-8.4,4.8-15.7,11.4-21.9,20c-3.5,4.9-7.2,9.6-11,14.2c-4.4,5.4-9.7,9-15.7,11.2c-0.9,0.3-1.8,0.4-3-0.1c0.5-0.5,1-1.2,1.6-1.5
				c7-3.5,12.6-9.3,17.5-16.3c3.6-5.3,7.1-10.8,11-15.9c3.3-4.3,6.9-8.2,10.8-12.7c-8.8-2.2-17.2-4.8-25.9-5.3
				c-8.9-0.5-17.2,2.9-25.6,6.5c0.8-0.8,1.5-1.7,2.3-2.3c11.8-9,24.6-10.4,37.9-7.9c6.5,1.2,12.9,2.7,19.5,0.9
				c3.2-0.9,6.5-1.9,9.6-3.4c16.8-8.5,34-11.4,52-9.2c23.5,2.9,46.8,1.4,70-4.4c12.6-3.1,24.8-7.7,35.7-16.5
				c10.9-8.9,18.9-20.7,22.4-37.3c9.3,0,18.6,0,27.8,0c5.8,28.9,21.8,44.3,43.2,52.5c15,5.8,30.4,6.5,46,5.6
				c8.6-0.5,17.2-0.7,25.8-0.7c10.5,0,20.9,2.1,30.2,7.9c14,8.7,28.5,9.2,43.4,5.9c17.2-3.8,33.3-0.4,48.4,10.5
				c1.2,0.8,2.3,1.9,3,3.7c-1.3-0.6-2.6-1-3.8-1.7c-14.7-8.5-29.9-10.4-45.8-6.5c-7.1,1.8-14.4,2.7-21.6,4c0,0.4,0,0.9,0.1,1.1
				c6,8.3,12.1,16.4,17.9,24.9c7.7,11.4,17,19.3,28.7,22.2c0.9,0.2,1.7,0.7,2.5,1.1c-0.1,0.4-0.1,0.8-0.2,1.2
				c-1.9-0.3-3.8-0.5-5.7-0.9c-10.4-2.2-19.4-7.7-26.7-17.2c-2.7-3.5-5.3-6.9-7.9-10.5c-17.8-24.5-40.2-35.2-66.3-34.1
				c-5.3,0.2-10.5,1.1-15.7,1.6c-9.7,0.8-19.3,1.5-29.4,2.2c0.7,1,1.3,2,2,2.9c5.1,6.9,10.1,13.8,15.2,20.8
				c6.6,9.1,14.3,15.9,24.2,18.1c3.1,0.7,6.3,1.1,9.5,1.6c5.9,1,11.5,3.3,16.6,7.1c1.3,1,2.5,2.2,3.7,3.3c-0.2,0.3-0.3,0.7-0.5,1
				c-0.7-0.2-1.4-0.4-2-0.8c-5.9-3.9-12.2-5.8-18.8-6.1c-2.7-0.1-5.4-0.5-8.1-0.6c-7.5-0.3-14.3-3.5-21.4-9.2
				c1.2,9,2.7,16.8,5.9,23.8c3.4,7.4,8.5,12.1,15.3,13.9c-2.8,1.7-5.2,0.4-7.5-0.5c-6.4-2.7-10.8-8.3-13.6-15.9
				c-1.5-4-2.5-8.2-3.7-12.3c-6.8-24.8-20.2-41.5-40-49.3c-12.7-5-25.2-9.9-36.1-20.5c0.3,1.4,0.6,2.9,1,4.3
				c5.4,17,13.4,31.8,24.8,43.4c6.3,6.4,12.9,12.4,19.3,18.7c4.4,4.3,8.7,8.8,12.8,13.5c8.6,10.2,13.9,22.7,15.3,37.7
				c0.1,1.4,0.4,2.8,0.6,4.7c5.6,2.4,11.5,3.8,17.4,5c17.5,3.6,35.2,4.1,52.9,4.5c16.9,0.4,33.8,0.8,50.6,4
				c12.3,2.4,24.5,5.4,36.7,8.3c1.6,0.4,3,1.2,4.5,1.9c0.4,0.2,0.6,0.8,0.9,1.3c-13.6-2-27.1-4-41.1-6.1c0.4,1.4,0.3,2.2,0.6,2.4
				c7.3,7.2,12.2,16.7,16.5,26.9c2.1,4.9,4.3,9.9,6.9,14.4c2.4,4.1,5.5,7.7,8.7,12.1c-1.2-0.4-2.1-0.5-2.7-1
				c-4.5-3.5-8.3-8.1-11.3-13.7c-2.6-4.8-5-9.8-7.5-14.7c-8.4-16.5-20.1-25.9-36-26.3c-4.9-0.1-9.9,0.1-14.8,0.1
				c-13.7,0.1-27.4,0.2-41.1,0.3c-0.9,0-1.9,0-3.1,0c0.2,0.8,0.2,1.5,0.5,1.8c11.1,12.5,17.1,28.6,20.7,46.4
				c0.9,4.5,1.7,8.9,2.8,13.3c2,8.5,6.1,14.9,12.3,19.1c3.8,2.6,7.6,5,11.4,7.7c4.7,3.3,8.5,7.8,11,13.8c0.3,0.8,0.5,1.8,0.2,3.2
				c-0.8-1-1.6-1.9-2.3-3c-3.2-5.2-7.2-9-12-11.6c-7.3-3.9-15-6.6-21-13.9c-0.4,17.7,1.9,33.9,13.2,46.3c-0.3,0.3-0.7,0.6-1,1
				c-1.3-1.2-2.7-2.3-4-3.6c-7.4-8-10.9-18.6-12.7-30.2c-1.5-10-2.4-20.2-3.9-30.2c-1.7-11.7-4.9-22.8-10-32.9
				c-7.2-14.2-17.2-24-30.3-28.3c-4.3-1.4-8.6-2.6-13.2-4c-1.4,20.6,2.6,37.5,16.7,49.3c-0.3,0.3-0.6,0.6-0.9,1
				c-0.9-0.3-2-0.4-2.8-0.9c-11.2-7.5-17.3-19.7-19.6-35.1c-0.8-5.3-1.1-10.6-1.6-16c-10.7-4.2-21.5-8.5-31.8-12.6
				c0.3,7.6,0.6,15.3,0.9,23c0.2,6.7,2.3,12.4,6,17.1c3,3.9,5.7,8.1,6.9,13.5c0.3,1.3,0.3,2.7,0.6,5.2c-2.2-4.3-3.7-7.8-5.7-10.8
				c-2-3-4.7-5.5-6.9-8.3c-2.8-3.5-4.4-7.9-4.9-12.8c-0.4-4-0.6-8-0.8-12c-0.4-10.8-4-19.2-11.6-24.7c-2.4-1.8-4.8-3.7-8-6.1
				c0.9,11.3-2.2,20.6-3.9,30.3c-0.7,4.2-0.3,8.7-0.2,13.1c0.1,2.1,0.6,4.2,0.6,6.5c-3.3-3.7-4.8-8.6-4.8-13.9
				c0-5.2,0.3-10.5,1.2-15.5c2.6-13.9,0-25.5-7.9-35.8c-8.6-11.2-15.1-24.2-18.6-40.1c-0.6,1.1-0.9,1.6-1.1,2.3
				c-3.5,15.4-7,30.8-10.3,46.2c-2.6,12.1-1.2,23.8,2.8,35.1c4.8,13.6,11.8,25.2,20.3,35.3c12.1,14.5,24.5,28.6,36.9,42.8
				c5.9,6.8,11.2,14.2,16,22.2c2.6,4.3,5.7,8.2,9.1,11.4c6,5.9,12.5,11.1,18.7,16.6c0.5,0.4,1,0.9,1.3,1.9c-4.4-0.7-8-3.7-11.7-6.5
				c-3.8-2.9-7.6-5.8-12.2-9.4c4.3,21.5,2.9,41.7-0.7,61.9c-0.3,0-0.7,0-1,0.1c0-1.6,0-3.2,0-4.8c0.1-10.2,0.4-20.4,0.1-30.6
				c-0.5-19.3-6.6-35.7-18-48.7c-4.4-5.1-9.1-9.8-14.6-15.6c0.4,4.1,1,6.8,1,9.4c0,4.6,0.1,9.2-0.5,13.8c-1.1,8.9-1.3,17.5,2.6,25.6
				c0.1,0.2-0.1,0.7-0.1,1.6c-0.7-0.6-1.4-1-1.8-1.7c-3.1-4.8-4.8-10.4-4.9-16.5c-0.1-4.6,0.1-9.2,0.3-13.8c0.4-7.2-0.7-14.1-4.1-20
				c-3-5.3-6.4-10.4-10-15.2c-3.3-4.4-7-8.1-10.6-12.2c-8.7-10-17-20.5-24-34c-0.4,2.2-0.8,3.4-0.8,4.6c-0.3,13-0.6,26-0.8,39
				c-0.2,14.2-0.4,28.4-0.5,42.6c-0.1,11.2,3.2,20.7,8.9,29c2.1,3,4.4,5.8,6.4,8.9c5.3,8,7.5,17.2,6.4,27.8c-0.3-1-0.7-2-0.8-3.1
				c-1.1-9.6-4.8-17.2-10.3-23.8c-4.2-5.1-8.3-10.4-12.4-15.5c-2,4.6-4.2,31.5-3.7,41.6c0.7,14.7,6,27.5,10.7,40.8
				c-0.9,0-1.3,0.1-1.4,0c-7.5-12.9-13.5-26.7-15.3-42.8c-1.3-11.8-0.5-23.6,0.3-35.3c0.2-3.9,0.4-7.8,0.7-12.3
				c-7.6,7.3-14.8,14-21.7,20.9c-4.2,4.2-7,9.8-9.1,16c-0.7,2.2-1.5,4.3-2.9,6.3c0.1-1.4,0-2.9,0.3-4.2c2-10.5,6.3-19.2,12.9-26
				c2.6-2.7,5.3-5.2,7.8-7.9c8.5-9,13.3-20.1,12.8-34.5c-0.8-19.2-1.3-38.4-2-57.6c0-0.5-0.3-1-0.6-2.1c-0.7,1-1.3,1.6-1.7,2.4
				c-8.7,14.8-19.4,27.1-31.1,37.9c-4.5,4.1-9.1,8.1-13.5,12.4c-3.4,3.2-6.9,6.5-10.1,10.1c-6.3,7.1-9.2,16.1-9.1,26.7
				c0,4,0.1,8-0.1,12c-0.2,2.9-0.8,5.7-2.2,8.4c-0.5-6.4-1.2-12.7-1.3-19.1C236.1,458.3,236.6,451.8,236.8,445.1z M349.6,234.2
				c-1,6.7-0.2,13.1,0.8,19.5c3.4,21.6,13.1,38.3,26.7,51.6c14.1,13.8,30.4,21.5,47.4,27.3c0.2,0.1,0.5-0.2,1.2-0.4
				c-0.2-1.6-0.3-3.4-0.6-5.1c-1.4-6.7-3.6-13-7.6-17.7c-4.6-5.5-9.4-10.7-14.6-15.3c-7-6.2-14.6-11.5-21.7-17.5
				c-12.4-10.5-22.8-23.6-30.3-40.1C350.4,235.7,350,234.9,349.6,234.2z"/>
			<path class="st0" d="M349.6,234.2c0.4,0.7,0.9,1.5,1.2,2.2c7.5,16.5,17.9,29.6,30.3,40.1c7.1,6,14.7,11.3,21.7,17.5
				c5.2,4.6,10,9.8,14.6,15.3c4,4.8,6.2,11.1,7.6,17.7c0.3,1.7,0.4,3.4,0.6,5.1c-0.6,0.2-0.9,0.5-1.2,0.4
				c-17-5.8-33.3-13.5-47.4-27.3c-13.6-13.3-23.3-30-26.7-51.6C349.3,247.3,348.5,240.9,349.6,234.2z"/>
		</g>
</svg>
